# xmcd CD database file
#
# Track frame offsets:
# 150
# 13501
# 21955
# 35489
# 46644
# 57849
# 69080
# 78509
# 89346
# 98933
# 111112
# 120204
# 129681
# 138234
#
# Disc length: 1999 seconds
# Revision: 21
# Processed by: cddbd v1.5.2PL0 Copyright (c) Steve Scherf et al.
# Submitted via: MusicBin 0.4
#
DISCID=a907cd0e
DTITLE=Beatles - Please Please Me (Mono)
DYEAR=1963
DGENRE=Rock
TTITLE0=I Saw Her Standing There (Mono)
TTITLE1=Misery (Mono)
TTITLE2=Anna (Go To Him) (Mono)
TTITLE3=Chains (Mono)
TTITLE4=Boys (Mono)
TTITLE5=Ask Me Why (Mono)
TTITLE6=Please Please Me (Mono)
TTITLE7=Love Me Do (Mono)
TTITLE8=P.S. I Love You (Mono)
TTITLE9=Baby It's You (Mono)
TTITLE10=Do You Want To Know A Secret (Mono)
TTITLE11=A Taste Of Honey (Mono)
TTITLE12=Threre's A Place (Mono)
TTITLE13=Twist And Shout (Mono)
EXTD=
EXTT0=
EXTT1=
EXTT2=
EXTT3=
EXTT4=
EXTT5=
EXTT6=
EXTT7=
EXTT8=
EXTT9=
EXTT10=
EXTT11=
EXTT12=
EXTT13=
PLAYORDER=
